# xmcd
#
# Track frame offsets: 
#        150
#        10385
#        21869
#        31425
#        41255
#        52182
#        64936
#        81271
#        90656
#        104035
#        112215
#        125477
#        134366
#        146120
#        158523
#        170231
#        185032
#        200405
#        217843
#        236896
#
# Disc length: 3264 seconds
#
# Revision: 0
# Processed by: cddbd v1.5.2PL0 Copyright (c) Steve Scherf et al.
# Submitted via: ExactAudioCopy v1.0b3
#
DISCID=2f0cbe14
DTITLE=Various Artist - Music city Blues and Soul, The Best Of Bullet &
DTITLE=Sur-Speed
DYEAR=2005
DGENRE=Blues,Soul,R&B,Nashville
TTITLE0=Various Artists-Larry Birdsong - I'm So Glad You're Home
TTITLE1=Various Artists-Larry Birdsong - Somebody Help Me
TTITLE2=Various Artists-John Colbert - Surfside Slide
TTITLE3=Various Artists-John Colbert - Congratulations
TTITLE4=Various Artists-John Colbert - Recipe For Love
TTITLE5=Various Artists-Shy Guy Douglas - Stone Doin' Alright
TTITLE6=Various Artists-Shy Guy Douglas - Don't Leave Me Girl
TTITLE7=Various Artists-Shy Guy Douglas - Haulin'
TTITLE8=Various Artists-Shy Guy Douglas - Miss Iiola
TTITLE9=Various Artists-Art Mayes - All I Want From You
TTITLE10=Various Artists-Art Mayes - You're The Only Good Thing
TTITLE11=Various Artists-Rubin Russell - Look Out Heart
TTITLE12=Various Artists-Rubin Russell - Just Two Of A Kind
TTITLE13=Various Artists-Levert Allison - Sugar Daddy
TTITLE14=Various Artists-Levert Allison - Lovin' On My Mind
TTITLE15=Various Artists-Robert Garrett - I Don't Want To Be Sober
TTITLE16=Various Artists-Robert Garrett - Mean Man
TTITLE17=Various Artists-Thomas Henry - Nobody Else Will Do
TTITLE18=Various Artists-Johnny Bragg - Walk Tall
TTITLE19=Various Artists-The Cheques - Go On girl
EXTD=
EXTT0=
EXTT1=
EXTT2=
EXTT3=
EXTT4=
EXTT5=
EXTT6=
EXTT7=
EXTT8=
EXTT9=
EXTT10=
EXTT11=
EXTT12=
EXTT13=
EXTT14=
EXTT15=
EXTT16=
EXTT17=
EXTT18=
EXTT19=
PLAYORDER=
